<?xml version="1.0" encoding="utf-8" standalone="no"?>
<!DOCTYPE svg PUBLIC "-//W3C//DTD SVG 1.1//EN"
  "http://www.w3.org/Graphics/SVG/1.1/DTD/svg11.dtd">
<svg xmlns:xlink="http://www.w3.org/1999/xlink" width="288pt" height="216pt" viewBox="0 0 288 216" xmlns="http://www.w3.org/2000/svg" version="1.1">
 <metadata>
  <rdf:RDF xmlns:dc="http://purl.org/dc/elements/1.1/" xmlns:cc="http://creativecommons.org/ns#" xmlns:rdf="http://www.w3.org/1999/02/22-rdf-syntax-ns#">
   <cc:Work>
    <dc:type rdf:resource="http://purl.org/dc/dcmitype/StillImage"/>
    <dc:date>2024-06-16T16:24:19.766812</dc:date>
    <dc:format>image/svg+xml</dc:format>
    <dc:creator>
     <cc:Agent>
      <dc:title>Matplotlib v3.9.0, https://matplotlib.org/</dc:title>
     </cc:Agent>
    </dc:creator>
   </cc:Work>
  </rdf:RDF>
 </metadata>
 <defs>
  <style type="text/css">*{stroke-linejoin: round; stroke-linecap: butt}</style>
 </defs>
 <g id="figure_1">
  <g id="patch_1">
   <path d="M 0 216 
L 288 216 
L 288 0 
L 0 0 
L 0 216 
z
" style="fill: none"/>
  </g>
  <g id="axes_1">
   <g id="patch_2">
    <path d="M 34.76 181.96 
L 277.2 181.96 
L 277.2 26.88 
L 34.76 26.88 
L 34.76 181.96 
z
" style="fill: none"/>
   </g>
   <g id="matplotlib.axis_1">
    <g id="xtick_1"/>
    <g id="xtick_2"/>
    <g id="xtick_3"/>
    <g id="xtick_4"/>
    <g id="xtick_5"/>
    <g id="xtick_6"/>
    <g id="xtick_7"/>
    <g id="xtick_8"/>
    <g id="xtick_9"/>
    <g id="text_1">
     <!-- Temperature $T/T_C$ -->
     <g transform="translate(111.38 200.538125) scale(0.1 -0.1)">
      <defs>
       <path id="DejaVuSans-54" d="M -19 4666 
L 3928 4666 
L 3928 4134 
L 2272 4134 
L 2272 0 
L 1638 0 
L 1638 4134 
L -19 4134 
L -19 4666 
z
" transform="scale(0.015625)"/>
       <path id="DejaVuSans-65" d="M 3597 1894 
L 3597 1613 
L 953 1613 
Q 991 1019 1311 708 
Q 1631 397 2203 397 
Q 2534 397 2845 478 
Q 3156 559 3463 722 
L 3463 178 
Q 3153 47 2828 -22 
Q 2503 -91 2169 -91 
Q 1331 -91 842 396 
Q 353 884 353 1716 
Q 353 2575 817 3079 
Q 1281 3584 2069 3584 
Q 2775 3584 3186 3129 
Q 3597 2675 3597 1894 
z
M 3022 2063 
Q 3016 2534 2758 2815 
Q 2500 3097 2075 3097 
Q 1594 3097 1305 2825 
Q 1016 2553 972 2059 
L 3022 2063 
z
" transform="scale(0.015625)"/>
       <path id="DejaVuSans-6d" d="M 3328 2828 
Q 3544 3216 3844 3400 
Q 4144 3584 4550 3584 
Q 5097 3584 5394 3201 
Q 5691 2819 5691 2113 
L 5691 0 
L 5113 0 
L 5113 2094 
Q 5113 2597 4934 2840 
Q 4756 3084 4391 3084 
Q 3944 3084 3684 2787 
Q 3425 2491 3425 1978 
L 3425 0 
L 2847 0 
L 2847 2094 
Q 2847 2600 2669 2842 
Q 2491 3084 2119 3084 
Q 1678 3084 1418 2786 
Q 1159 2488 1159 1978 
L 1159 0 
L 581 0 
L 581 3500 
L 1159 3500 
L 1159 2956 
Q 1356 3278 1631 3431 
Q 1906 3584 2284 3584 
Q 2666 3584 2933 3390 
Q 3200 3197 3328 2828 
z
" transform="scale(0.015625)"/>
       <path id="DejaVuSans-70" d="M 1159 525 
L 1159 -1331 
L 581 -1331 
L 581 3500 
L 1159 3500 
L 1159 2969 
Q 1341 3281 1617 3432 
Q 1894 3584 2278 3584 
Q 2916 3584 3314 3078 
Q 3713 2572 3713 1747 
Q 3713 922 3314 415 
Q 2916 -91 2278 -91 
Q 1894 -91 1617 61 
Q 1341 213 1159 525 
z
M 3116 1747 
Q 3116 2381 2855 2742 
Q 2594 3103 2138 3103 
Q 1681 3103 1420 2742 
Q 1159 2381 1159 1747 
Q 1159 1113 1420 752 
Q 1681 391 2138 391 
Q 2594 391 2855 752 
Q 3116 1113 3116 1747 
z
" transform="scale(0.015625)"/>
       <path id="DejaVuSans-72" d="M 2631 2963 
Q 2534 3019 2420 3045 
Q 2306 3072 2169 3072 
Q 1681 3072 1420 2755 
Q 1159 2438 1159 1844 
L 1159 0 
L 581 0 
L 581 3500 
L 1159 3500 
L 1159 2956 
Q 1341 3275 1631 3429 
Q 1922 3584 2338 3584 
Q 2397 3584 2469 3576 
Q 2541 3569 2628 3553 
L 2631 2963 
z
" transform="scale(0.015625)"/>
       <path id="DejaVuSans-61" d="M 2194 1759 
Q 1497 1759 1228 1600 
Q 959 1441 959 1056 
Q 959 750 1161 570 
Q 1363 391 1709 391 
Q 2188 391 2477 730 
Q 2766 1069 2766 1631 
L 2766 1759 
L 2194 1759 
z
M 3341 1997 
L 3341 0 
L 2766 0 
L 2766 531 
Q 2569 213 2275 61 
Q 1981 -91 1556 -91 
Q 1019 -91 701 211 
Q 384 513 384 1019 
Q 384 1609 779 1909 
Q 1175 2209 1959 2209 
L 2766 2209 
L 2766 2266 
Q 2766 2663 2505 2880 
Q 2244 3097 1772 3097 
Q 1472 3097 1187 3025 
Q 903 2953 641 2809 
L 641 3341 
Q 956 3463 1253 3523 
Q 1550 3584 1831 3584 
Q 2591 3584 2966 3190 
Q 3341 2797 3341 1997 
z
" transform="scale(0.015625)"/>
       <path id="DejaVuSans-74" d="M 1172 4494 
L 1172 3500 
L 2356 3500 
L 2356 3053 
L 1172 3053 
L 1172 1153 
Q 1172 725 1289 603 
Q 1406 481 1766 481 
L 2356 481 
L 2356 0 
L 1766 0 
Q 1100 0 847 248 
Q 594 497 594 1153 
L 594 3053 
L 172 3053 
L 172 3500 
L 594 3500 
L 594 4494 
L 1172 4494 
z
" transform="scale(0.015625)"/>
       <path id="DejaVuSans-75" d="M 544 1381 
L 544 3500 
L 1119 3500 
L 1119 1403 
Q 1119 906 1312 657 
Q 1506 409 1894 409 
Q 2359 409 2629 706 
Q 2900 1003 2900 1516 
L 2900 3500 
L 3475 3500 
L 3475 0 
L 2900 0 
L 2900 538 
Q 2691 219 2414 64 
Q 2138 -91 1772 -91 
Q 1169 -91 856 284 
Q 544 659 544 1381 
z
M 1991 3584 
L 1991 3584 
z
" transform="scale(0.015625)"/>
       <path id="DejaVuSans-20" transform="scale(0.015625)"/>
       <path id="DejaVuSans-Oblique-54" d="M 378 4666 
L 4325 4666 
L 4225 4134 
L 2559 4134 
L 1759 0 
L 1125 0 
L 1925 4134 
L 275 4134 
L 378 4666 
z
" transform="scale(0.015625)"/>
       <path id="DejaVuSans-2f" d="M 1625 4666 
L 2156 4666 
L 531 -594 
L 0 -594 
L 1625 4666 
z
" transform="scale(0.015625)"/>
       <path id="DejaVuSans-Oblique-43" d="M 4447 4306 
L 4319 3641 
Q 4019 3944 3683 4091 
Q 3347 4238 2956 4238 
Q 2422 4238 2017 3981 
Q 1613 3725 1319 3200 
Q 1131 2863 1032 2486 
Q 934 2109 934 1728 
Q 934 1091 1264 756 
Q 1594 422 2222 422 
Q 2656 422 3056 561 
Q 3456 700 3834 978 
L 3688 231 
Q 3316 72 2936 -9 
Q 2556 -91 2175 -91 
Q 1278 -91 773 396 
Q 269 884 269 1753 
Q 269 2309 461 2846 
Q 653 3384 1013 3828 
Q 1394 4300 1883 4525 
Q 2372 4750 3022 4750 
Q 3422 4750 3780 4639 
Q 4138 4528 4447 4306 
z
" transform="scale(0.015625)"/>
      </defs>
      <use xlink:href="#DejaVuSans-54" transform="translate(0 0.09375)"/>
      <use xlink:href="#DejaVuSans-65" transform="translate(61.083984 0.09375)"/>
      <use xlink:href="#DejaVuSans-6d" transform="translate(122.607422 0.09375)"/>
      <use xlink:href="#DejaVuSans-70" transform="translate(220.019531 0.09375)"/>
      <use xlink:href="#DejaVuSans-65" transform="translate(283.496094 0.09375)"/>
      <use xlink:href="#DejaVuSans-72" transform="translate(345.019531 0.09375)"/>
      <use xlink:href="#DejaVuSans-61" transform="translate(386.132812 0.09375)"/>
      <use xlink:href="#DejaVuSans-74" transform="translate(447.412109 0.09375)"/>
      <use xlink:href="#DejaVuSans-75" transform="translate(486.621094 0.09375)"/>
      <use xlink:href="#DejaVuSans-72" transform="translate(550 0.09375)"/>
      <use xlink:href="#DejaVuSans-65" transform="translate(591.113281 0.09375)"/>
      <use xlink:href="#DejaVuSans-20" transform="translate(652.636719 0.09375)"/>
      <use xlink:href="#DejaVuSans-Oblique-54" transform="translate(684.423828 0.09375)"/>
      <use xlink:href="#DejaVuSans-2f" transform="translate(745.507812 0.09375)"/>
      <use xlink:href="#DejaVuSans-Oblique-54" transform="translate(779.199219 0.09375)"/>
      <use xlink:href="#DejaVuSans-Oblique-43" transform="translate(840.283203 -16.3125) scale(0.7)"/>
     </g>
    </g>
   </g>
   <g id="matplotlib.axis_2">
    <g id="ytick_1"/>
    <g id="ytick_2"/>
    <g id="ytick_3"/>
    <g id="ytick_4"/>
    <g id="ytick_5"/>
    <g id="ytick_6"/>
    <g id="text_2">
     <!-- Magnetization $\langle M\rangle$ -->
     <g transform="translate(21.66 149.67) rotate(-90) scale(0.1 -0.1)">
      <defs>
       <path id="DejaVuSans-4d" d="M 628 4666 
L 1569 4666 
L 2759 1491 
L 3956 4666 
L 4897 4666 
L 4897 0 
L 4281 0 
L 4281 4097 
L 3078 897 
L 2444 897 
L 1241 4097 
L 1241 0 
L 628 0 
L 628 4666 
z
" transform="scale(0.015625)"/>
       <path id="DejaVuSans-67" d="M 2906 1791 
Q 2906 2416 2648 2759 
Q 2391 3103 1925 3103 
Q 1463 3103 1205 2759 
Q 947 2416 947 1791 
Q 947 1169 1205 825 
Q 1463 481 1925 481 
Q 2391 481 2648 825 
Q 2906 1169 2906 1791 
z
M 3481 434 
Q 3481 -459 3084 -895 
Q 2688 -1331 1869 -1331 
Q 1566 -1331 1297 -1286 
Q 1028 -1241 775 -1147 
L 775 -588 
Q 1028 -725 1275 -790 
Q 1522 -856 1778 -856 
Q 2344 -856 2625 -561 
Q 2906 -266 2906 331 
L 2906 616 
Q 2728 306 2450 153 
Q 2172 0 1784 0 
Q 1141 0 747 490 
Q 353 981 353 1791 
Q 353 2603 747 3093 
Q 1141 3584 1784 3584 
Q 2172 3584 2450 3431 
Q 2728 3278 2906 2969 
L 2906 3500 
L 3481 3500 
L 3481 434 
z
" transform="scale(0.015625)"/>
       <path id="DejaVuSans-6e" d="M 3513 2113 
L 3513 0 
L 2938 0 
L 2938 2094 
Q 2938 2591 2744 2837 
Q 2550 3084 2163 3084 
Q 1697 3084 1428 2787 
Q 1159 2491 1159 1978 
L 1159 0 
L 581 0 
L 581 3500 
L 1159 3500 
L 1159 2956 
Q 1366 3272 1645 3428 
Q 1925 3584 2291 3584 
Q 2894 3584 3203 3211 
Q 3513 2838 3513 2113 
z
" transform="scale(0.015625)"/>
       <path id="DejaVuSans-69" d="M 603 3500 
L 1178 3500 
L 1178 0 
L 603 0 
L 603 3500 
z
M 603 4863 
L 1178 4863 
L 1178 4134 
L 603 4134 
L 603 4863 
z
" transform="scale(0.015625)"/>
       <path id="DejaVuSans-7a" d="M 353 3500 
L 3084 3500 
L 3084 2975 
L 922 459 
L 3084 459 
L 3084 0 
L 275 0 
L 275 525 
L 2438 3041 
L 353 3041 
L 353 3500 
z
" transform="scale(0.015625)"/>
       <path id="DejaVuSans-6f" d="M 1959 3097 
Q 1497 3097 1228 2736 
Q 959 2375 959 1747 
Q 959 1119 1226 758 
Q 1494 397 1959 397 
Q 2419 397 2687 759 
Q 2956 1122 2956 1747 
Q 2956 2369 2687 2733 
Q 2419 3097 1959 3097 
z
M 1959 3584 
Q 2709 3584 3137 3096 
Q 3566 2609 3566 1747 
Q 3566 888 3137 398 
Q 2709 -91 1959 -91 
Q 1206 -91 779 398 
Q 353 888 353 1747 
Q 353 2609 779 3096 
Q 1206 3584 1959 3584 
z
" transform="scale(0.015625)"/>
       <path id="DejaVuSans-27e8" d="M 572 2006 
L 1453 4856 
L 1984 4856 
L 1103 2006 
L 1984 -844 
L 1453 -844 
L 572 2006 
z
" transform="scale(0.015625)"/>
       <path id="DejaVuSans-Oblique-4d" d="M 1081 4666 
L 2028 4666 
L 2572 1522 
L 4378 4666 
L 5350 4666 
L 4441 0 
L 3828 0 
L 4622 4091 
L 2791 897 
L 2175 897 
L 1581 4103 
L 788 0 
L 172 0 
L 1081 4666 
z
" transform="scale(0.015625)"/>
       <path id="DejaVuSans-27e9" d="M 1925 2006 
L 1044 -844 
L 513 -844 
L 1394 2006 
L 513 4856 
L 1044 4856 
L 1925 2006 
z
" transform="scale(0.015625)"/>
      </defs>
      <use xlink:href="#DejaVuSans-4d" transform="translate(0 0.015625)"/>
      <use xlink:href="#DejaVuSans-61" transform="translate(86.279297 0.015625)"/>
      <use xlink:href="#DejaVuSans-67" transform="translate(147.558594 0.015625)"/>
      <use xlink:href="#DejaVuSans-6e" transform="translate(211.035156 0.015625)"/>
      <use xlink:href="#DejaVuSans-65" transform="translate(274.414062 0.015625)"/>
      <use xlink:href="#DejaVuSans-74" transform="translate(335.9375 0.015625)"/>
      <use xlink:href="#DejaVuSans-69" transform="translate(375.146484 0.015625)"/>
      <use xlink:href="#DejaVuSans-7a" transform="translate(402.929688 0.015625)"/>
      <use xlink:href="#DejaVuSans-61" transform="translate(455.419922 0.015625)"/>
      <use xlink:href="#DejaVuSans-74" transform="translate(516.699219 0.015625)"/>
      <use xlink:href="#DejaVuSans-69" transform="translate(555.908203 0.015625)"/>
      <use xlink:href="#DejaVuSans-6f" transform="translate(583.691406 0.015625)"/>
      <use xlink:href="#DejaVuSans-6e" transform="translate(644.873047 0.015625)"/>
      <use xlink:href="#DejaVuSans-20" transform="translate(708.251953 0.015625)"/>
      <use xlink:href="#DejaVuSans-27e8" transform="translate(740.039062 0.015625)"/>
      <use xlink:href="#DejaVuSans-Oblique-4d" transform="translate(779.052734 0.015625)"/>
      <use xlink:href="#DejaVuSans-27e9" transform="translate(865.332031 0.015625)"/>
     </g>
    </g>
   </g>
   <g id="line2d_1">
    <path d="M 34.76 104.42 
L 47.52 108.614503 
L 59.672381 112.84553 
L 70.609524 116.888247 
L 80.331429 120.705356 
L 89.445714 124.513787 
L 97.952381 128.311692 
L 105.24381 131.795373 
L 111.927619 135.216272 
L 118.00381 138.559538 
L 123.472381 141.805776 
L 128.333333 144.92946 
L 132.586667 147.896857 
L 136.84 151.148728 
L 140.485714 154.238008 
L 143.52381 157.103998 
L 145.954286 159.660439 
L 148.384762 162.550723 
L 150.207619 165.039385 
L 152.030476 167.963771 
L 153.245714 170.314434 
L 154.460952 173.279908 
L 155.068571 175.236429 
L 155.67619 178.078145 
L 156.28381 181.96 
L 277.2 181.96 
L 277.2 181.96 
" clip-path="url(#pebec76273a)" style="fill: none; stroke: #0000ff; stroke-width: 1.5; stroke-linecap: square"/>
   </g>
   <g id="line2d_2">
    <path d="M 155.98 181.96 
L 155.98 26.88 
" clip-path="url(#pebec76273a)" style="fill: none; stroke-dasharray: 5.55,2.4; stroke-dashoffset: 0; stroke: #ff0000; stroke-width: 1.5"/>
   </g>
   <g id="patch_3">
    <path d="M 34.76 181.96 
L 34.76 26.88 
" style="fill: none; stroke: #000000; stroke-width: 0.8; stroke-linejoin: miter; stroke-linecap: square"/>
   </g>
   <g id="patch_4">
    <path d="M 277.2 181.96 
L 277.2 26.88 
" style="fill: none; stroke: #000000; stroke-width: 0.8; stroke-linejoin: miter; stroke-linecap: square"/>
   </g>
   <g id="patch_5">
    <path d="M 34.76 181.96 
L 277.2 181.96 
" style="fill: none; stroke: #000000; stroke-width: 0.8; stroke-linejoin: miter; stroke-linecap: square"/>
   </g>
   <g id="patch_6">
    <path d="M 34.76 26.88 
L 277.2 26.88 
" style="fill: none; stroke: #000000; stroke-width: 0.8; stroke-linejoin: miter; stroke-linecap: square"/>
   </g>
   <g id="text_3">
    <!-- Phase transition of a Ferromagnet -->
    <g transform="translate(54.04 20.88) scale(0.12 -0.12)">
     <defs>
      <path id="DejaVuSans-50" d="M 1259 4147 
L 1259 2394 
L 2053 2394 
Q 2494 2394 2734 2622 
Q 2975 2850 2975 3272 
Q 2975 3691 2734 3919 
Q 2494 4147 2053 4147 
L 1259 4147 
z
M 628 4666 
L 2053 4666 
Q 2838 4666 3239 4311 
Q 3641 3956 3641 3272 
Q 3641 2581 3239 2228 
Q 2838 1875 2053 1875 
L 1259 1875 
L 1259 0 
L 628 0 
L 628 4666 
z
" transform="scale(0.015625)"/>
      <path id="DejaVuSans-68" d="M 3513 2113 
L 3513 0 
L 2938 0 
L 2938 2094 
Q 2938 2591 2744 2837 
Q 2550 3084 2163 3084 
Q 1697 3084 1428 2787 
Q 1159 2491 1159 1978 
L 1159 0 
L 581 0 
L 581 4863 
L 1159 4863 
L 1159 2956 
Q 1366 3272 1645 3428 
Q 1925 3584 2291 3584 
Q 2894 3584 3203 3211 
Q 3513 2838 3513 2113 
z
" transform="scale(0.015625)"/>
      <path id="DejaVuSans-73" d="M 2834 3397 
L 2834 2853 
Q 2591 2978 2328 3040 
Q 2066 3103 1784 3103 
Q 1356 3103 1142 2972 
Q 928 2841 928 2578 
Q 928 2378 1081 2264 
Q 1234 2150 1697 2047 
L 1894 2003 
Q 2506 1872 2764 1633 
Q 3022 1394 3022 966 
Q 3022 478 2636 193 
Q 2250 -91 1575 -91 
Q 1294 -91 989 -36 
Q 684 19 347 128 
L 347 722 
Q 666 556 975 473 
Q 1284 391 1588 391 
Q 1994 391 2212 530 
Q 2431 669 2431 922 
Q 2431 1156 2273 1281 
Q 2116 1406 1581 1522 
L 1381 1569 
Q 847 1681 609 1914 
Q 372 2147 372 2553 
Q 372 3047 722 3315 
Q 1072 3584 1716 3584 
Q 2034 3584 2315 3537 
Q 2597 3491 2834 3397 
z
" transform="scale(0.015625)"/>
      <path id="DejaVuSans-66" d="M 2375 4863 
L 2375 4384 
L 1825 4384 
Q 1516 4384 1395 4259 
Q 1275 4134 1275 3809 
L 1275 3500 
L 2222 3500 
L 2222 3053 
L 1275 3053 
L 1275 0 
L 697 0 
L 697 3053 
L 147 3053 
L 147 3500 
L 697 3500 
L 697 3744 
Q 697 4328 969 4595 
Q 1241 4863 1831 4863 
L 2375 4863 
z
" transform="scale(0.015625)"/>
      <path id="DejaVuSans-46" d="M 628 4666 
L 3309 4666 
L 3309 4134 
L 1259 4134 
L 1259 2759 
L 3109 2759 
L 3109 2228 
L 1259 2228 
L 1259 0 
L 628 0 
L 628 4666 
z
" transform="scale(0.015625)"/>
     </defs>
     <use xlink:href="#DejaVuSans-50"/>
     <use xlink:href="#DejaVuSans-68" x="60.302734"/>
     <use xlink:href="#DejaVuSans-61" x="123.681641"/>
     <use xlink:href="#DejaVuSans-73" x="184.960938"/>
     <use xlink:href="#DejaVuSans-65" x="237.060547"/>
     <use xlink:href="#DejaVuSans-20" x="298.583984"/>
     <use xlink:href="#DejaVuSans-74" x="330.371094"/>
     <use xlink:href="#DejaVuSans-72" x="369.580078"/>
     <use xlink:href="#DejaVuSans-61" x="410.693359"/>
     <use xlink:href="#DejaVuSans-6e" x="471.972656"/>
     <use xlink:href="#DejaVuSans-73" x="535.351562"/>
     <use xlink:href="#DejaVuSans-69" x="587.451172"/>
     <use xlink:href="#DejaVuSans-74" x="615.234375"/>
     <use xlink:href="#DejaVuSans-69" x="654.443359"/>
     <use xlink:href="#DejaVuSans-6f" x="682.226562"/>
     <use xlink:href="#DejaVuSans-6e" x="743.408203"/>
     <use xlink:href="#DejaVuSans-20" x="806.787109"/>
     <use xlink:href="#DejaVuSans-6f" x="838.574219"/>
     <use xlink:href="#DejaVuSans-66" x="899.755859"/>
     <use xlink:href="#DejaVuSans-20" x="934.960938"/>
     <use xlink:href="#DejaVuSans-61" x="966.748047"/>
     <use xlink:href="#DejaVuSans-20" x="1028.027344"/>
     <use xlink:href="#DejaVuSans-46" x="1059.814453"/>
     <use xlink:href="#DejaVuSans-65" x="1111.833984"/>
     <use xlink:href="#DejaVuSans-72" x="1173.357422"/>
     <use xlink:href="#DejaVuSans-72" x="1212.720703"/>
     <use xlink:href="#DejaVuSans-6f" x="1251.583984"/>
     <use xlink:href="#DejaVuSans-6d" x="1312.765625"/>
     <use xlink:href="#DejaVuSans-61" x="1410.177734"/>
     <use xlink:href="#DejaVuSans-67" x="1471.457031"/>
     <use xlink:href="#DejaVuSans-6e" x="1534.933594"/>
     <use xlink:href="#DejaVuSans-65" x="1598.3125"/>
     <use xlink:href="#DejaVuSans-74" x="1659.835938"/>
    </g>
   </g>
   <g id="legend_1">
    <g id="patch_7">
     <path d="M 128.9 64.28 
L 270.2 64.28 
Q 272.2 64.28 272.2 62.28 
L 272.2 33.88 
Q 272.2 31.88 270.2 31.88 
L 128.9 31.88 
Q 126.9 31.88 126.9 33.88 
L 126.9 62.28 
Q 126.9 64.28 128.9 64.28 
z
" style="fill: #ffffff; opacity: 0.8; stroke: #cccccc; stroke-linejoin: miter"/>
    </g>
    <g id="line2d_3">
     <path d="M 130.9 39.98 
L 140.9 39.98 
L 150.9 39.98 
" style="fill: none; stroke: #0000ff; stroke-width: 1.5; stroke-linecap: square"/>
    </g>
    <g id="text_4">
     <!-- Magnetization $\langle M \rangle$ -->
     <g transform="translate(158.9 43.48) scale(0.1 -0.1)">
      <use xlink:href="#DejaVuSans-4d" transform="translate(0 0.015625)"/>
      <use xlink:href="#DejaVuSans-61" transform="translate(86.279297 0.015625)"/>
      <use xlink:href="#DejaVuSans-67" transform="translate(147.558594 0.015625)"/>
      <use xlink:href="#DejaVuSans-6e" transform="translate(211.035156 0.015625)"/>
      <use xlink:href="#DejaVuSans-65" transform="translate(274.414062 0.015625)"/>
      <use xlink:href="#DejaVuSans-74" transform="translate(335.9375 0.015625)"/>
      <use xlink:href="#DejaVuSans-69" transform="translate(375.146484 0.015625)"/>
      <use xlink:href="#DejaVuSans-7a" transform="translate(402.929688 0.015625)"/>
      <use xlink:href="#DejaVuSans-61" transform="translate(455.419922 0.015625)"/>
      <use xlink:href="#DejaVuSans-74" transform="translate(516.699219 0.015625)"/>
      <use xlink:href="#DejaVuSans-69" transform="translate(555.908203 0.015625)"/>
      <use xlink:href="#DejaVuSans-6f" transform="translate(583.691406 0.015625)"/>
      <use xlink:href="#DejaVuSans-6e" transform="translate(644.873047 0.015625)"/>
      <use xlink:href="#DejaVuSans-20" transform="translate(708.251953 0.015625)"/>
      <use xlink:href="#DejaVuSans-27e8" transform="translate(740.039062 0.015625)"/>
      <use xlink:href="#DejaVuSans-Oblique-4d" transform="translate(779.052734 0.015625)"/>
      <use xlink:href="#DejaVuSans-27e9" transform="translate(865.332031 0.015625)"/>
     </g>
    </g>
    <g id="line2d_4">
     <path d="M 130.9 54.68 
L 140.9 54.68 
L 150.9 54.68 
" style="fill: none; stroke-dasharray: 5.55,2.4; stroke-dashoffset: 0; stroke: #ff0000; stroke-width: 1.5"/>
    </g>
    <g id="text_5">
     <!-- Curie Temperature $T_C$ -->
     <g transform="translate(158.9 58.18) scale(0.1 -0.1)">
      <defs>
       <path id="DejaVuSans-43" d="M 4122 4306 
L 4122 3641 
Q 3803 3938 3442 4084 
Q 3081 4231 2675 4231 
Q 1875 4231 1450 3742 
Q 1025 3253 1025 2328 
Q 1025 1406 1450 917 
Q 1875 428 2675 428 
Q 3081 428 3442 575 
Q 3803 722 4122 1019 
L 4122 359 
Q 3791 134 3420 21 
Q 3050 -91 2638 -91 
Q 1578 -91 968 557 
Q 359 1206 359 2328 
Q 359 3453 968 4101 
Q 1578 4750 2638 4750 
Q 3056 4750 3426 4639 
Q 3797 4528 4122 4306 
z
" transform="scale(0.015625)"/>
      </defs>
      <use xlink:href="#DejaVuSans-43" transform="translate(0 0.015625)"/>
      <use xlink:href="#DejaVuSans-75" transform="translate(69.824219 0.015625)"/>
      <use xlink:href="#DejaVuSans-72" transform="translate(133.203125 0.015625)"/>
      <use xlink:href="#DejaVuSans-69" transform="translate(174.316406 0.015625)"/>
      <use xlink:href="#DejaVuSans-65" transform="translate(202.099609 0.015625)"/>
      <use xlink:href="#DejaVuSans-20" transform="translate(263.623047 0.015625)"/>
      <use xlink:href="#DejaVuSans-54" transform="translate(295.410156 0.015625)"/>
      <use xlink:href="#DejaVuSans-65" transform="translate(356.494141 0.015625)"/>
      <use xlink:href="#DejaVuSans-6d" transform="translate(418.017578 0.015625)"/>
      <use xlink:href="#DejaVuSans-70" transform="translate(515.429688 0.015625)"/>
      <use xlink:href="#DejaVuSans-65" transform="translate(578.90625 0.015625)"/>
      <use xlink:href="#DejaVuSans-72" transform="translate(640.429688 0.015625)"/>
      <use xlink:href="#DejaVuSans-61" transform="translate(681.542969 0.015625)"/>
      <use xlink:href="#DejaVuSans-74" transform="translate(742.822266 0.015625)"/>
      <use xlink:href="#DejaVuSans-75" transform="translate(782.03125 0.015625)"/>
      <use xlink:href="#DejaVuSans-72" transform="translate(845.410156 0.015625)"/>
      <use xlink:href="#DejaVuSans-65" transform="translate(886.523438 0.015625)"/>
      <use xlink:href="#DejaVuSans-20" transform="translate(948.046875 0.015625)"/>
      <use xlink:href="#DejaVuSans-Oblique-54" transform="translate(979.833984 0.015625)"/>
      <use xlink:href="#DejaVuSans-Oblique-43" transform="translate(1040.917969 -16.390625) scale(0.7)"/>
     </g>
    </g>
   </g>
  </g>
 </g>
 <defs>
  <clipPath id="pebec76273a">
   <rect x="34.76" y="26.88" width="242.44" height="155.08"/>
  </clipPath>
 </defs>
</svg>
